<?xml version="1.0" standalone="no"?>
<!DOCTYPE svg PUBLIC "-//W3C//DTD SVG 20010904//EN"
 "http://www.w3.org/TR/2001/REC-SVG-20010904/DTD/svg10.dtd">
<svg version="1.0" xmlns="http://www.w3.org/2000/svg"
 width="500.000000pt" height="500.000000pt" viewBox="0 0 500.000000 500.000000"
 preserveAspectRatio="xMidYMid meet">

<g transform="translate(0.000000,500.000000) scale(0.100000,-0.100000)"
fill="#ffffff" stroke="none">
<path d="M2330 4434 c-287 -57 -424 -110 -610 -238 -63 -43 -229 -197 -476
-441 -28 -27 -237 -232 -464 -455 -485 -476 -540 -540 -639 -738 -92 -184
-133 -372 -133 -597 2 -401 129 -692 437 -1001 154 -154 241 -217 475 -346
182 -100 787 -398 808 -398 3 0 65 -27 137 -59 182 -83 306 -137 333 -145 l22
-7 0 1063 c0 698 -4 1076 -10 1100 -10 33 -70 98 -92 98 -8 0 -379 145 -593
232 l-101 40 -50 -31 c-137 -84 -306 -55 -419 71 -111 123 -104 326 15 448 63
64 124 91 221 97 126 9 232 -46 299 -154 17 -29 36 -70 42 -92 7 -29 17 -42
37 -50 14 -5 62 -24 106 -41 44 -17 118 -46 165 -64 47 -18 167 -65 268 -104
218 -85 275 -97 436 -89 125 5 172 18 381 101 33 14 101 40 150 59 182 70 281
109 331 129 47 19 52 24 63 67 35 138 172 242 318 242 103 0 168 -26 240 -98
52 -52 65 -72 82 -128 26 -84 26 -126 1 -207 -24 -79 -68 -137 -139 -182 -117
-75 -239 -74 -364 3 l-32 20 -95 -39 c-52 -21 -138 -54 -190 -75 -52 -20 -122
-47 -155 -60 -33 -13 -108 -43 -167 -66 -119 -46 -171 -86 -182 -139 -3 -18
-6 -509 -6 -1092 l0 -1059 23 7 c23 7 129 53 382 165 157 69 322 147 522 245
360 177 548 282 679 380 80 60 266 249 335 339 181 239 272 513 272 820 0 288
-74 530 -236 770 -61 91 -232 266 -877 901 -525 515 -593 573 -775 662 -205
100 -341 132 -580 137 -93 2 -181 1 -195 -1z m284 -655 c98 -27 196 -111 246
-209 102 -203 18 -446 -188 -543 -62 -30 -75 -32 -172 -32 -99 0 -110 2 -172
33 -85 41 -152 109 -192 192 -29 61 -31 72 -31 175 0 104 2 113 32 170 54 101
136 173 241 211 45 16 183 18 236 3z"/>
</g>
</svg>
