<?xml version="1.0" encoding="utf-8"?>
<!-- Generator: Adobe Illustrator 25.1.0, SVG Export Plug-In . SVG Version: 6.00 Build 0)  -->
<svg version="1.1" id="Layer_1" xmlns="http://www.w3.org/2000/svg" xmlns:xlink="http://www.w3.org/1999/xlink" x="0px" y="0px"
	 viewBox="0 0 670.1 186" style="enable-background:new 0 0 670.1 186;" xml:space="preserve">
<style type="text/css">
	.st0{fill-rule:evenodd;clip-rule:evenodd;fill:#000;}
	.st1{fill:#000;}
</style>
<g id="new_itc_logo" transform="translate(-1115 -133)">
	<g id="Group_649" transform="translate(952)">
		<path id="Path_39620" class="st0" d="M355.2,196l-46.7-45.8c-22-22.6-58.2-23-80.7-1c-0.3,0.3-0.7,0.7-1,1L180.2,196
			c-22.5,21.9-23,57.8-1.1,80.3c0.4,0.4,0.7,0.7,1.1,1.1l5.9,5.8c10.5,10.3,65.1,33.8,70,35.8v-88.9c-0.1-2.8-1.9-5.2-4.5-6.2
			l-29.1-11.4c-5.9,4.9-14.7,4.2-19.6-1.7c-4.9-5.9-4.2-14.7,1.7-19.6c5.9-4.9,14.7-4.2,19.6,1.7c1.7,2.1,2.8,4.6,3.1,7.2l28.3,11
			c7.7,3.1,16.3,3.1,24,0l28.3-11c0.9-7.6,7.9-13.1,15.6-12.1c7.6,0.9,13.1,7.9,12.1,15.6c-0.9,7.6-7.9,13.1-15.6,12.1
			c-2.7-0.3-5.2-1.4-7.2-3.1l-29.1,11.4c-2.6,1-4.4,3.4-4.5,6.2V319c4.9-2,59.5-25.5,70-35.8l5.9-5.8c22.5-21.9,22.9-57.9,1-80.4
			C355.9,196.7,355.5,196.4,355.2,196L355.2,196z M267.7,193.9c-9.3,0-16.8-7.5-16.8-16.8s7.5-16.8,16.8-16.8s16.8,7.5,16.8,16.8
			c0,4.5-1.8,8.7-4.9,11.9C276.4,192.1,272.1,193.9,267.7,193.9L267.7,193.9z"/>
		<path id="Path_39621" class="st0" d="M356.2,197.1L279.3,303v16c4.9-2,59.5-25.5,70-35.8l5.9-5.8
			C377.6,255.5,378.1,219.5,356.2,197.1L356.2,197.1z"/>
		<path id="Path_39622" class="st0" d="M227,198.3l6.3-34l20.1,3.7c5-7.9,15.4-10.2,23.3-5.2c3.9,2.5,6.6,6.4,7.5,10.9l59.6,11.1
			l-35.3-34.6c-22-22.6-58.2-23-80.7-1c-0.3,0.3-0.7,0.7-1,1L180.2,196c-22.5,21.9-23,57.8-1.1,80.3c0.4,0.4,0.7,0.7,1.1,1.1
			l5.9,5.8c3.6,3.5,12.4,8.6,22.6,13.9l15.6-83.9l-1.8-0.7c-5.9,4.9-14.7,4.2-19.6-1.7s-4.2-14.7,1.7-19.6s14.7-4.2,19.6,1.7
			C225.5,194.4,226.5,196.3,227,198.3z"/>
		<path id="Path_39623" class="st0" d="M298.4,142l-65.3,22l-5.1-15C247.1,130.7,276.2,127.8,298.4,142z"/>
	</g>
	<g id="Group_5" transform="translate(3855.512 -70.154)">
		<g id="Group_4" transform="translate(-2485.834 239.48)">
			<g id="Group_2" transform="translate(0)">
				<path id="Path_2" class="st1" d="M0,0.8h10.8v60.4H0V0.8z"/>
				<path id="Path_3" class="st1" d="M64.8,9.2H47v51.9H36.2V9.2H18.5V0.8h46.3V9.2z"/>
				<path id="Path_4" class="st1" d="M85.4,31c0-18.6,11.8-31,29.4-31c15.1,0,26.1,9,27.7,22.6h-10.6c-1.2-8.3-8-13.9-17.1-13.9
					c-10.9,0-18.2,8.9-18.2,22.3s7.3,22.3,18.2,22.3c9.1,0,15.9-5.6,17.1-14h10.6c-1.6,13.6-12.6,22.7-27.7,22.7
					C97.1,61.9,85.4,49.5,85.4,31z"/>
				<path id="Path_5" class="st1" d="M194.4,52.7v8.5h-42.9V0.8h41.9v8.5h-31.1v16.7h28.3v8.5h-28.3v18.3L194.4,52.7z"/>
				<path id="Path_6" class="st1" d="M252.3,0.8v60.4h-10.2l-27.7-43.4h-0.2l0.2,43.4h-10.3V0.8h10.3l27.6,43.6h0.2l-0.2-43.6H252.3
					z"/>
				<path id="Path_7" class="st1" d="M306.3,9.2h-17.8v51.9h-10.8V9.2H260V0.8h46.3L306.3,9.2z"/>
				<path id="Path_8" class="st1" d="M357,52.7v8.5h-42.9V0.8H356v8.5h-31.1v16.7h28.3v8.5h-28.3v18.3L357,52.7z"/>
				<path id="Path_9" class="st1" d="M390.7,36.6h-13.1v24.5h-10.8V0.8h23.9c13.4,0,22.4,6.9,22.4,17.2c0,8-4.5,14-12.1,16.9
					l14.3,26.3h-12.1L390.7,36.6z M377.6,28.6h13.6c6.4,0,10.7-3.9,10.7-9.9c0-5.6-4.3-9.5-10.7-9.5h-13.6L377.6,28.6z"/>
			</g>
			<g id="Group_3" transform="translate(180.876 88.849)">
				<path id="Path_10" class="st1" d="M1.9,12.5v6.9H0V0.7h8.3c3.5,0,5.3,2,5.3,6.1c0.1,1.5-0.4,2.9-1.3,4.1c-1,1.2-2.4,1.8-3.9,1.6
					L1.9,12.5z M1.9,2.3v8.5h6.4c0.9,0.1,1.8-0.4,2.4-1.1c0.6-0.9,0.9-1.9,0.8-3c0.1-1.1-0.2-2.3-0.8-3.3c-0.5-0.8-1.4-1.2-2.3-1.2
					L1.9,2.3z"/>
				<path id="Path_11" class="st1" d="M16.4,12.5c0-2.7,0.5-4.5,1.4-5.5c1-1,2.5-1.5,4.7-1.5S26.3,6,27.3,7c1,1,1.4,2.9,1.4,5.5
					c0,2.7-0.5,4.6-1.4,5.6c-1,1.1-2.5,1.6-4.7,1.6s-3.8-0.5-4.7-1.6C16.9,17.1,16.4,15.2,16.4,12.5z M22.5,7.1
					c-1.6,0-2.7,0.4-3.3,1.1c-0.6,0.7-0.9,2.2-0.9,4.5c0,2.2,0.3,3.6,0.9,4.4c0.6,0.8,1.7,1.2,3.3,1.2c1.6,0,2.7-0.4,3.3-1.2
					c0.6-0.8,0.9-2.2,0.9-4.4c0-2.2-0.3-3.7-0.9-4.5C25.3,7.4,24.2,7.1,22.5,7.1L22.5,7.1z"/>
				<path id="Path_12" class="st1" d="M49.5,5.8h2c-1.2,4.6-2.8,9.1-4.6,13.5h-2.5c-0.8-3.9-1.8-7.8-3-11.5c-1,3.9-2.1,7.7-3.5,11.5
					h-2.5c-1.2-4.6-2.7-9.1-4.4-13.5h2.1c1.5,3.9,2.7,7.8,3.6,11.9c0.6-1.7,1.3-3.8,2-6.2C39.5,9,40,7.1,40.3,5.8h2.2
					c1.3,3.9,2.4,7.9,3.2,11.9C47.2,13.8,48.5,9.9,49.5,5.8z"/>
				<path id="Path_13" class="st1" d="M60,5.4c2,0,3.4,0.5,4.2,1.6c0.9,1,1.3,2.9,1.3,5.7h-9.7c0,2.1,0.4,3.5,1,4.3
					c1,0.8,2.2,1.2,3.5,1.1c1.3,0,2.6-0.3,3.9-0.7l0.4,1.6c-1.4,0.5-2.9,0.7-4.4,0.8c-1.8,0.1-3.5-0.4-4.8-1.6
					c-1-1.1-1.5-2.9-1.5-5.6c0-2.5,0.5-4.4,1.4-5.4C56.3,6,57.8,5.4,60,5.4z M60,7.1C58.9,7,57.8,7.3,56.9,8c-0.7,0.9-1.1,2.1-1,3.2
					h7.7c0.1-1.2-0.2-2.3-0.9-3.3C61.9,7.3,60.9,7,60,7.1z"/>
				<path id="Path_14" class="st1" d="M74.4,5.4c0.5,0,0.9,0,1.4,0.1v1.8c-0.5-0.1-0.9-0.1-1.4-0.1c-0.9,0-1.9,0.1-2.7,0.5
					c-0.6,0.2-1,0.7-1.1,1.3v10.3h-1.7V5.8h1.7v1c0.4-0.4,0.9-0.8,1.5-1C72.8,5.6,73.6,5.4,74.4,5.4L74.4,5.4z"/>
				<path id="Path_15" class="st1" d="M83.8,5.4c2,0,3.4,0.5,4.2,1.6c0.9,1,1.3,2.9,1.3,5.7h-9.7c0,2.1,0.4,3.5,1,4.3
					c1,0.8,2.2,1.2,3.5,1.1c1.3,0,2.6-0.3,3.9-0.7l0.4,1.6c-1.4,0.5-2.9,0.7-4.4,0.8c-1.8,0.1-3.5-0.4-4.8-1.6
					c-1-1.1-1.5-2.9-1.5-5.6c0-2.5,0.5-4.4,1.4-5.4C80.1,6,81.7,5.4,83.8,5.4z M83.8,7.1C82.7,7,81.6,7.3,80.7,8
					c-0.7,0.9-1.1,2.1-1,3.2h7.7c0.1-1.2-0.2-2.3-0.9-3.3C85.7,7.3,84.8,7,83.8,7.1z"/>
				<path id="Path_16" class="st1" d="M98.5,5.4c1.3-0.1,2.6,0.3,3.7,1.1V0h1.7v18.7c-0.8,0.4-1.7,0.6-2.6,0.8
					c-0.9,0.2-1.9,0.3-2.8,0.3c-2.2,0-3.8-0.5-4.7-1.5c-0.9-1.1-1.4-2.9-1.4-5.6c0-2.7,0.5-4.5,1.4-5.6C94.7,6,96.3,5.4,98.5,5.4z
					 M98.5,18.1c1.3,0,2.5-0.2,3.7-0.6V9c0-0.6-0.5-1.2-1-1.4c-0.8-0.4-1.8-0.6-2.7-0.5c-1.6,0-2.7,0.4-3.3,1.1
					c-0.6,0.8-0.9,2.2-0.9,4.4c0.1,2.3,0.3,3.8,0.9,4.4C95.7,17.7,96.8,18,98.5,18.1L98.5,18.1z"/>
				<path id="Path_17" class="st1" d="M121.2,5.4c2.2,0,3.7,0.5,4.7,1.6c1,1,1.4,2.9,1.4,5.6c0,2.7-0.5,4.5-1.4,5.6
					c-0.9,1-2.5,1.5-4.7,1.5c-1,0-1.9-0.1-2.8-0.3c-0.9-0.2-1.8-0.4-2.6-0.8V0h1.7v6.5C118.5,5.8,119.8,5.4,121.2,5.4L121.2,5.4z
					 M121.2,18.1c1.7,0,2.8-0.4,3.3-1c0.5-0.7,0.8-2.1,0.9-4.4c0-2.2-0.3-3.6-0.9-4.4c-0.6-0.8-1.7-1.1-3.3-1.1
					c-0.9,0-1.8,0.1-2.7,0.5c-0.6,0.2-1,0.8-1,1.4v8.5C118.6,17.9,119.9,18.1,121.2,18.1L121.2,18.1z"/>
				<path id="Path_18" class="st1" d="M134.6,20c-1.3-4.9-2.9-9.6-5-14.2h2c1.7,3.9,3.1,7.9,4.2,12c1.7-3.9,3.1-7.9,4.3-12h1.9
					c-1.4,4.6-3.1,9.1-5,13.5c-0.7,1.6-1.5,3.3-2.4,5.1h-2C133.2,23.1,133.9,21.6,134.6,20z"/>
				<path id="Path_19" class="st1" d="M153,19.4V0.7h1.9v18.7H153z"/>
				<path id="Path_20" class="st1" d="M172.7,2.3h-6.5v17.1h-2V2.3h-6.5V0.7h14.9L172.7,2.3z"/>
				<path id="Path_21" class="st1" d="M185.1,12.5v6.9h-1.9V0.7h8.3c3.5,0,5.3,2,5.3,6.1c0.1,1.5-0.4,2.9-1.3,4.1
					c-1,1.2-2.4,1.8-3.9,1.6L185.1,12.5z M185.1,2.3v8.5h6.4c0.9,0.1,1.8-0.4,2.4-1.1c0.6-0.9,0.9-1.9,0.8-3
					c0.1-1.1-0.2-2.3-0.8-3.3c-0.5-0.8-1.4-1.2-2.3-1.2L185.1,2.3z"/>
				<path id="Path_22" class="st1" d="M210.4,10.7v8c-1.7,0.7-3.6,1.1-5.5,1.1c-1.5,0.1-3-0.2-4.2-1c-0.9-0.9-1.4-2.2-1.3-3.6
					c0-1.8,0.5-2.9,1.4-3.6c1.2-0.7,2.6-1,4-0.9c1.3,0,2.6,0.1,3.9,0.4c0-1.7-0.3-2.7-0.8-3.2c-0.9-0.6-2.1-0.9-3.2-0.8
					c-1.3,0-2.6,0.2-3.9,0.6l-0.5-1.6c1.5-0.4,3-0.7,4.5-0.7c2,0,3.5,0.4,4.3,1.1C210,7.3,210.4,8.7,210.4,10.7z M208.7,17.5v-4.9
					c-1.2-0.3-2.4-0.4-3.6-0.3c-1-0.1-2,0.1-2.9,0.5c-0.5,0.3-0.7,1.1-0.7,2.3c0,1.3,0.2,2.2,0.7,2.5c0.9,0.5,1.9,0.7,2.9,0.6
					C206.3,18.2,207.5,17.9,208.7,17.5L208.7,17.5z"/>
				<path id="Path_23" class="st1" d="M220,5.4c0.5,0,0.9,0,1.4,0.1v1.8c-0.5-0.1-0.9-0.1-1.4-0.1c-0.9,0-1.9,0.1-2.7,0.5
					c-0.6,0.2-1,0.7-1.1,1.3v10.3h-1.7V5.8h1.7v1c0.4-0.4,0.9-0.8,1.5-1C218.5,5.6,219.3,5.4,220,5.4L220,5.4z"/>
				<path id="Path_24" class="st1" d="M234.5,19.4h-2.3c-3.6-4.4-5.9-6.8-6.8-7.2v7.2h-1.7V0h1.7v12.2c1.1-0.7,3.2-2.8,6.4-6.4h2.3
					c-1.9,2.2-3.9,4.3-6.2,6.1C228.7,12.4,230.9,14.9,234.5,19.4z"/>
			</g>
		</g>
	</g>
</g>
</svg>
